<?xml version="1.0" standalone="no"?>
<!DOCTYPE svg PUBLIC "-//W3C//DTD SVG 20010904//EN"
 "http://www.w3.org/TR/2001/REC-SVG-20010904/DTD/svg10.dtd">
<svg version="1.0" xmlns="http://www.w3.org/2000/svg"
 width="699.000000pt" height="212.000000pt" viewBox="0 0 699.000000 212.000000"
 preserveAspectRatio="xMidYMid meet">
<metadata>
Created by potrace 1.16, written by Peter Selinger 2001-2019
</metadata>
<g transform="translate(0.000000,212.000000) scale(0.100000,-0.100000)"
fill="#000000" stroke="none">
<path d="M372 1621 c3 -149 3 -151 30 -178 23 -23 38 -28 95 -31 51 -4 74 0
99 13 54 29 65 66 62 212 l-3 128 -35 0 -35 0 -5 -129 c-5 -126 -6 -129 -32
-149 -24 -18 -30 -18 -57 -7 -38 15 -40 25 -44 170 l-2 115 -38 3 -38 3 3
-150z"/>
<path d="M759 1755 c-41 -22 -56 -68 -38 -119 11 -33 24 -46 62 -67 62 -33 79
-51 71 -72 -12 -32 -51 -33 -126 -2 -15 6 -18 1 -18 -29 0 -44 23 -56 107 -56
49 0 59 4 89 34 27 27 34 42 34 73 0 50 -20 78 -79 107 -62 32 -78 51 -60 72
13 16 38 15 97 -2 19 -6 22 -3 22 24 0 21 -7 35 -19 42 -28 14 -111 12 -142
-5z"/>
<path d="M995 1757 c-3 -7 -4 -87 -3 -177 l3 -165 103 -3 103 -3 -3 33 -3 33
-62 3 -63 3 0 44 0 45 55 0 c54 0 55 0 55 30 0 30 -1 30 -55 30 l-55 0 0 35 0
34 63 3 c62 3 62 3 62 33 l0 30 -98 3 c-74 2 -99 0 -102 -11z"/>
<path d="M1268 1764 c-5 -4 -8 -86 -8 -181 l0 -174 38 3 37 3 3 68 c2 57 6 67
21 67 22 0 41 -27 66 -92 17 -46 19 -48 56 -48 34 0 39 3 39 23 0 12 -16 50
-34 85 -32 59 -33 63 -15 72 23 13 40 71 30 107 -13 48 -53 68 -144 71 -45 2
-85 0 -89 -4z"/>
<path d="M890 546 c0 -169 1 -176 20 -176 11 0 20 5 20 10 0 7 6 7 19 0 32
-17 85 -12 109 10 27 26 45 90 36 136 -13 71 -66 103 -131 81 -21 -8 -22 -5
-25 50 -3 51 -6 58 -25 61 l-23 3 0 -175z"/>
<path d="M1150 545 l0 -176 23 3 c22 3 22 4 22 173 0 169 0 170 -22 173 l-23
3 0 -176z"/>
<path d="M1570 545 l0 -176 23 3 c20 3 22 9 25 83 3 83 18 115 52 115 31 0 44
-29 48 -116 4 -74 7 -84 23 -84 17 0 19 9 19 99 0 81 -3 103 -18 121 -19 24
-60 30 -99 17 -21 -8 -22 -5 -25 50 -3 51 -6 58 -25 61 l-23 3 0 -176z"/>
<path d="M2227 713 c-4 -3 -7 -30 -7 -59 l0 -54 -27 11 c-36 13 -79 2 -102
-26 -40 -52 -34 -168 12 -200 28 -19 76 -19 105 1 20 14 22 14 22 0 0 -9 9
-16 20 -16 19 0 20 7 20 175 0 163 -1 175 -18 175 -10 0 -22 -3 -25 -7z"/>
<path d="M3550 545 l0 -176 23 3 c22 3 22 4 22 173 0 169 0 170 -22 173 l-23
3 0 -176z"/>
<path d="M383 693 c-10 -3 -13 -46 -13 -164 l0 -159 25 0 c24 0 25 3 25 60 0
60 0 60 29 60 72 0 121 42 121 105 0 52 -21 82 -68 95 -38 10 -98 12 -119 3z"/>
<path d="M3165 688 c-3 -7 -6 -71 -7 -143 l-3 -130 -33 3 c-30 3 -33 1 -30
-20 4 -33 75 -39 104 -7 17 19 19 36 19 163 0 139 0 141 -23 144 -12 2 -24 -3
-27 -10z"/>
<path d="M4028 684 c-36 -19 -40 -60 -5 -49 12 4 39 9 59 12 33 4 39 2 49 -20
15 -33 -7 -78 -77 -155 -30 -33 -54 -70 -54 -81 0 -20 5 -21 100 -21 l100 0 0
25 c0 24 -2 25 -66 25 l-67 0 47 50 c69 74 89 130 65 183 -21 46 -97 61 -151
31z"/>
<path d="M4528 684 c-36 -19 -40 -60 -5 -49 12 4 39 9 59 12 33 4 39 2 49 -20
15 -33 -7 -78 -77 -155 -30 -33 -54 -70 -54 -81 0 -20 5 -21 100 -21 l100 0 0
25 c0 24 -2 25 -66 25 l-67 0 47 50 c69 74 89 130 65 183 -21 46 -97 61 -151
31z"/>
<path d="M4791 684 c-34 -24 -51 -75 -51 -154 0 -117 29 -160 107 -160 78 0
113 51 113 163 0 41 -5 88 -11 106 -19 55 -107 80 -158 45z m98 -50 c38 -49
24 -205 -20 -219 -55 -18 -84 36 -77 140 6 98 53 135 97 79z"/>
<path d="M5028 684 c-36 -19 -40 -60 -5 -49 12 4 39 9 59 12 33 4 39 2 49 -20
15 -33 -7 -78 -77 -155 -30 -33 -54 -70 -54 -81 0 -20 5 -21 100 -21 l100 0 0
25 c0 24 -2 25 -66 25 l-67 0 47 50 c69 74 89 130 65 183 -21 46 -97 61 -151
31z"/>
<path d="M5352 688 c-27 -33 -122 -204 -122 -220 0 -16 9 -18 70 -18 l70 0 0
-40 c0 -36 3 -40 25 -40 23 0 25 4 25 40 0 36 2 40 26 40 32 0 30 33 -3 38
-21 3 -22 9 -25 105 -3 101 -3 102 -29 105 -14 2 -31 -3 -37 -10z"/>
<path d="M1403 609 c-21 -6 -34 -18 -41 -38 -14 -40 4 -72 56 -95 33 -15 42
-25 40 -40 -2 -17 -10 -21 -38 -20 -19 0 -43 4 -52 8 -15 7 -18 3 -18 -17 0
-29 16 -37 76 -37 53 0 84 26 84 70 0 29 -32 70 -56 70 -6 0 -22 8 -35 19 -20
16 -22 21 -9 35 13 17 31 16 74 0 12 -4 16 0 16 15 0 14 -9 25 -26 31 -29 11
-28 11 -71 -1z"/>
<path d="M1870 601 c-65 -34 -78 -150 -23 -205 20 -21 35 -26 72 -26 66 0 91
9 91 32 0 17 -5 19 -44 13 -56 -9 -80 -1 -94 31 -7 14 -12 27 -12 29 0 3 36 5
80 5 l80 0 0 36 c0 48 -15 73 -55 90 -44 18 -53 18 -95 -5z"/>
<path d="M2531 607 c-37 -13 -71 -64 -71 -107 0 -45 20 -99 43 -115 12 -8 43
-15 70 -15 40 0 54 5 77 28 33 34 47 90 34 140 -15 61 -87 93 -153 69z m89
-52 c6 -8 14 -31 17 -52 10 -76 -63 -122 -106 -67 -25 32 -27 64 -6 104 13 24
22 30 49 30 18 0 39 -7 46 -15z"/>
<path d="M2813 605 c-18 -8 -33 -10 -33 -5 0 6 -9 10 -20 10 -19 0 -20 -7 -20
-121 0 -119 0 -120 23 -117 20 3 22 9 25 83 3 83 18 115 52 115 31 0 44 -29
48 -116 4 -74 7 -84 23 -84 17 0 19 9 19 99 0 80 -3 103 -17 119 -24 28 -61
35 -100 17z"/>
<path d="M620 543 c1 -85 14 -144 36 -160 24 -18 75 -16 102 3 20 14 22 14 22
0 0 -9 9 -16 20 -16 19 0 20 7 20 120 l0 120 -25 0 c-24 0 -24 -2 -27 -87 -3
-83 -4 -88 -30 -103 -25 -13 -29 -13 -45 3 -14 13 -19 38 -22 102 -3 82 -4 85
-27 85 -23 0 -24 -3 -24 -67z"/>
<path d="M3280 543 c1 -85 14 -144 36 -160 24 -18 75 -16 102 3 20 14 22 14
22 0 0 -9 9 -16 20 -16 19 0 20 7 20 120 l0 120 -25 0 c-24 0 -24 -2 -27 -87
-3 -83 -4 -88 -30 -103 -25 -13 -29 -13 -45 3 -14 13 -19 38 -22 102 -3 82 -4
85 -27 85 -23 0 -24 -3 -24 -67z"/>
<path d="M3630 598 c0 -7 18 -60 40 -118 39 -104 40 -108 25 -149 -13 -37 -13
-43 0 -47 8 -4 21 -4 28 -1 6 2 36 71 66 153 29 82 56 155 59 162 3 10 -3 13
-23 10 -26 -3 -32 -11 -55 -75 -14 -40 -28 -74 -31 -77 -2 -3 -17 31 -33 74
-25 70 -31 80 -52 80 -13 0 -24 -5 -24 -12z"/>
</g>
</svg>
